<?xml version="1.0" encoding="utf-8"?>
<!-- Generator: Adobe Illustrator 15.1.0, SVG Export Plug-In . SVG Version: 6.00 Build 0)  -->
<!DOCTYPE svg PUBLIC "-//W3C//DTD SVG 1.1//EN" "http://www.w3.org/Graphics/SVG/1.1/DTD/svg11.dtd">
<svg version="1.1" id="Layer_1" xmlns="http://www.w3.org/2000/svg" xmlns:xlink="http://www.w3.org/1999/xlink" x="0px" y="0px"
	 width="19px" height="19px" viewBox="139.525 78.08 528.857 632.19"
	 enable-background="new 139.525 78.08 528.857 632.19" xml:space="preserve">
<path fill="#FFFFFF" d="M192.419,200.416c20.828-2.458,51.722,7.489,65.414-6.085c0,0-0.704-50.903-0.704-64.945
	c1.053-11.352,5.851-26.448,8.075-33.819C226.821,133.95,187.62,171.98,149.588,210.48c13.458-5.969,29.724-9.712,42.948-9.948
	L192.419,200.416z M653.826,188.012c-4.681-25.277-19.775-37.682-33.234-42.596c-57.573-14.978-106.605-19.542-168.038-17.788
	c-11.585-43.532-53.596-48.563-90.691-49.499c-26.68-0.469-61.318,1.989-76.882,23.404c-13.809,28.552-7.605,64.83-7.138,92.68
	c0,12.871-10.415,23.404-23.404,23.404c-29.488,0.469-61.669-3.16-89.053,5.5c-20.009,9.946-25.861,31.243-25.861,50.436
	c9.829,59.095,12.521,137.615,39.553,197.88c6.554,13.573,10.882,19.19,23.755,25.157c28.671,12.289,94.083,25.863,124.743,29.841
	c30.659,3.861,49.849,12.169,61.318-11.821c10.882-27.148,16.615-60.965,16.733-90.807c0-1.988,2.925-2.107,2.925,0
	c0,13.691-2.575,62.021,33.936,75.009c14.394,5.15,44.351,9.713,74.66,13.225c27.499,3.159,47.392,13.925,47.392,84.487
	c0,42.83-9.01,48.798-56.052,48.798c-38.148,0-52.658,0.936-52.658-29.373c0-24.457,24.222-21.883,42.243-21.883
	c8.075,0,2.225-5.967,2.225-21.064c0-15.094,9.361-23.753,0.469-23.988c-62.138-1.754-98.647-0.117-98.647,77.586
	c0,70.562,27.03,83.668,115.146,83.668c69.159,0,93.499-2.223,122.053-90.807c5.615-17.436,19.307-70.795,27.616-160.436
	c5.266-56.637-4.915-227.602-12.99-270.783L653.826,188.012L653.826,188.012z M508.841,378.402
	c2.104-17.436,9.359-38.734,34.752-37.915c28.203,0.936,32.182,27.617,32.182,45.638c-23.404-9.361-44-10.063-67.053-7.723H508.841z
	"/>
</svg>
