<svg width="81" height="81" viewBox="0 0 81 81" fill="none" xmlns="http://www.w3.org/2000/svg">
<rect opacity="0.3" width="81" height="81" rx="5" fill="black"/>
<g clip-path="url(#clip0_90_221)">
<path fill-rule="evenodd" clip-rule="evenodd" d="M71 68.2344V52.7031C71 49.7355 67.5891 48.2518 65.6004 50.3596L60.8357 55.3795L52.408 46.5037L47.0628 51.8489L55.6179 60.857L50.8504 65.877C48.8631 67.9709 50.2723 71.5625 53.0893 71.5625H67.8393C68.2546 71.5636 68.6661 71.4783 69.0501 71.3114C69.434 71.1445 69.7829 70.8994 70.0766 70.5902C70.3703 70.2809 70.6031 69.9136 70.7615 69.5093C70.92 69.105 71.001 68.6717 71 68.2344ZM35.4234 52.394L27.3782 60.8709L32.1496 65.877C34.1369 67.9709 32.7277 71.5625 29.9107 71.5625H15.1607C14.7454 71.5636 14.3339 71.4783 13.9499 71.3114C13.566 71.1445 13.2171 70.8994 12.9234 70.5902C12.6297 70.2809 12.397 69.9136 12.2385 69.5093C12.08 69.105 11.999 68.6717 12 68.2344V52.7031C12 49.7355 15.4096 48.2518 17.3996 50.3457L22.1657 55.3656L30.0737 47.0442L35.4234 52.394ZM30.5347 34.4359L35.8798 29.0907L27.3822 20.143L32.1496 15.1231C34.1369 13.0291 32.7277 9.43751 29.9107 9.43751H15.1607C14.7454 9.43641 14.3339 9.52175 13.9499 9.68861C13.566 9.85548 13.2171 10.1006 12.9234 10.4098C12.6297 10.7191 12.397 11.0864 12.2385 11.4907C12.08 11.895 11.999 12.3283 12 12.7656V28.2969C12 31.2645 15.4109 32.7483 17.3996 30.6543L22.1643 25.6205L30.5347 34.4359ZM46.6027 29.6321L51.9518 34.9813L60.8344 25.6344L65.6004 30.6543C67.5904 32.7483 71 31.2645 71 28.2969V12.7656C71.001 12.3283 70.92 11.895 70.7615 11.4907C70.6031 11.0864 70.3703 10.7191 70.0766 10.4098C69.7829 10.1006 69.434 9.85548 69.0501 9.68861C68.6661 9.52175 68.2546 9.43641 67.8393 9.43751H53.0893C50.2723 9.43751 48.8631 13.0291 50.8504 15.1231L55.6218 20.1291L46.6027 29.6321Z" fill="white"/>
</g>
<defs>
<clipPath id="clip0_90_221">
<rect width="59" height="71" fill="white" transform="translate(12 5)"/>
</clipPath>
</defs>
</svg>
